<svg width="180" height="30" viewBox="0 0 180 30" fill="none" xmlns="http://www.w3.org/2000/svg">
<rect width="180" height="30" fill="#555555"/>
<rect x="140" width="40" height="30" fill="#1DA1F2"/>
<path d="M32.7931 11.764C33.3851 11.764 33.9451 11.876 34.4731 12.1C35.0011 12.316 35.4651 12.628 35.8651 13.036C36.2651 13.436 36.5811 13.916 36.8131 14.476C37.0451 15.036 37.1611 15.656 37.1611 16.336C37.1611 16.472 37.1491 16.656 37.1251 16.888C37.1091 17.12 37.0691 17.368 37.0051 17.632C36.9411 17.896 36.8451 18.148 36.7171 18.388C36.5971 18.62 36.4291 18.812 36.2131 18.964C35.9971 19.116 35.7291 19.192 35.4091 19.192C35.1371 19.192 34.9331 19.14 34.7971 19.036C34.6611 18.932 34.5651 18.796 34.5091 18.628C34.4611 18.46 34.4251 18.28 34.4011 18.088C34.1851 18.328 33.8971 18.532 33.5371 18.7C33.1771 18.86 32.7891 18.94 32.3731 18.94C31.8051 18.94 31.3611 18.788 31.0411 18.484C30.7291 18.18 30.5731 17.796 30.5731 17.332C30.5731 16.924 30.6851 16.604 30.9091 16.372C31.1331 16.132 31.4131 15.964 31.7491 15.868C32.0931 15.772 32.4411 15.724 32.7931 15.724C33.1371 15.724 33.4451 15.76 33.7171 15.832C33.9891 15.896 34.1891 15.952 34.3171 16C34.3171 15.616 34.2731 15.28 34.1851 14.992C34.1051 14.704 33.9571 14.48 33.7411 14.32C33.5251 14.152 33.2211 14.068 32.8291 14.068C32.5171 14.068 32.2171 14.12 31.9291 14.224C31.6411 14.32 31.3811 14.456 31.1491 14.632L30.9331 14.164C31.2211 13.972 31.5291 13.82 31.8571 13.708C32.1851 13.596 32.5331 13.54 32.9011 13.54C33.3411 13.54 33.6931 13.616 33.9571 13.768C34.2211 13.912 34.4171 14.104 34.5451 14.344C34.6731 14.584 34.7571 14.848 34.7971 15.136C34.8371 15.424 34.8571 15.712 34.8571 16V17.548C34.8571 17.9 34.8891 18.188 34.9531 18.412C35.0251 18.636 35.2011 18.748 35.4811 18.748C35.7291 18.748 35.9331 18.664 36.0931 18.496C36.2611 18.328 36.3891 18.116 36.4771 17.86C36.5731 17.604 36.6371 17.34 36.6691 17.068C36.7091 16.788 36.7291 16.536 36.7291 16.312C36.7291 15.736 36.6291 15.196 36.4291 14.692C36.2371 14.188 35.9611 13.748 35.6011 13.372C35.2411 12.996 34.8211 12.704 34.3411 12.496C33.8611 12.28 33.3411 12.172 32.7811 12.172C32.2291 12.172 31.7131 12.272 31.2331 12.472C30.7531 12.672 30.3291 12.956 29.9611 13.324C29.5931 13.684 29.3051 14.112 29.0971 14.608C28.8891 15.104 28.7851 15.648 28.7851 16.24C28.7851 16.808 28.8811 17.34 29.0731 17.836C29.2731 18.332 29.5491 18.768 29.9011 19.144C30.2611 19.52 30.6771 19.812 31.1491 20.02C31.6291 20.236 32.1531 20.344 32.7211 20.344C33.0571 20.344 33.3731 20.304 33.6691 20.224C33.9651 20.144 34.2611 20.032 34.5571 19.888L34.7131 20.272C34.3931 20.432 34.0611 20.552 33.7171 20.632C33.3811 20.712 33.0451 20.752 32.7091 20.752C32.1091 20.752 31.5451 20.64 31.0171 20.416C30.4971 20.192 30.0371 19.876 29.6371 19.468C29.2371 19.068 28.9211 18.592 28.6891 18.04C28.4651 17.488 28.3531 16.888 28.3531 16.24C28.3531 15.56 28.4731 14.948 28.7131 14.404C28.9611 13.852 29.2931 13.38 29.7091 12.988C30.1251 12.596 30.5971 12.296 31.1251 12.088C31.6611 11.872 32.2171 11.764 32.7931 11.764ZM33.5251 18.16C33.8611 18.008 34.0731 17.824 34.1611 17.608C34.2571 17.384 34.3051 17.16 34.3051 16.936V16.456C34.2091 16.448 34.0251 16.404 33.7531 16.324C33.4811 16.236 33.1531 16.192 32.7691 16.192C32.4891 16.192 32.2211 16.228 31.9651 16.3C31.7171 16.364 31.5131 16.476 31.3531 16.636C31.2011 16.796 31.1251 17.02 31.1251 17.308C31.1251 17.644 31.2451 17.916 31.4851 18.124C31.7331 18.324 32.0411 18.424 32.4091 18.424C32.6091 18.424 32.8091 18.4 33.0091 18.352C33.2091 18.296 33.3811 18.232 33.5251 18.16ZM38.816 11.44V10.24H39.632V11.44H38.816ZM37.796 21.172C37.532 21.172 37.284 21.136 37.052 21.064C36.812 20.992 36.604 20.872 36.428 20.704L36.824 20.152C36.952 20.264 37.092 20.34 37.244 20.38C37.396 20.42 37.548 20.44 37.7 20.44C37.98 20.44 38.236 20.332 38.468 20.116C38.7 19.908 38.816 19.644 38.816 19.324V12.748H39.632V19.276C39.632 19.644 39.544 19.972 39.368 20.26C39.192 20.548 38.964 20.772 38.684 20.932C38.404 21.092 38.108 21.172 37.796 21.172ZM46.6833 19H45.8673V15.508C45.8673 14.092 45.3873 13.384 44.4273 13.384C44.1153 13.384 43.8113 13.464 43.5153 13.624C43.2193 13.776 42.9553 13.988 42.7233 14.26C42.4993 14.524 42.3393 14.828 42.2433 15.172V19H41.4273V10.24H42.2433V14.164C42.4913 13.7 42.8353 13.332 43.2753 13.06C43.7233 12.78 44.1993 12.64 44.7033 12.64C45.1833 12.64 45.5673 12.756 45.8553 12.988C46.1433 13.212 46.3513 13.528 46.4793 13.936C46.6153 14.336 46.6833 14.804 46.6833 15.34V19ZM47.9194 17.2C47.9194 16.816 48.0314 16.484 48.2554 16.204C48.4794 15.916 48.7874 15.692 49.1794 15.532C49.5794 15.372 50.0394 15.292 50.5594 15.292C50.8634 15.292 51.1794 15.32 51.5074 15.376C51.8354 15.424 52.1274 15.492 52.3834 15.58V15.052C52.3834 14.524 52.2274 14.104 51.9154 13.792C51.6034 13.48 51.1714 13.324 50.6194 13.324C50.2914 13.324 49.9634 13.388 49.6354 13.516C49.3074 13.636 48.9674 13.816 48.6154 14.056L48.3034 13.48C48.7114 13.2 49.1114 12.992 49.5034 12.856C49.8954 12.712 50.2954 12.64 50.7034 12.64C51.4714 12.64 52.0794 12.86 52.5274 13.3C52.9754 13.74 53.1994 14.348 53.1994 15.124V18.016C53.1994 18.232 53.2994 18.344 53.4994 18.352V19C53.3234 19.024 53.1994 19.032 53.1274 19.024C52.9274 19.016 52.7754 18.952 52.6714 18.832C52.5674 18.712 52.5114 18.584 52.5034 18.448L52.4914 17.992C52.2114 18.352 51.8474 18.632 51.3994 18.832C50.9514 19.024 50.4954 19.12 50.0314 19.12C49.6234 19.12 49.2594 19.036 48.9394 18.868C48.6194 18.692 48.3674 18.46 48.1834 18.172C48.0074 17.876 47.9194 17.552 47.9194 17.2ZM52.1074 17.68C52.2914 17.464 52.3834 17.264 52.3834 17.08V16.168C51.8314 15.952 51.2554 15.844 50.6554 15.844C50.0714 15.844 49.5994 15.96 49.2394 16.192C48.8794 16.424 48.6994 16.74 48.6994 17.14C48.6994 17.484 48.8314 17.796 49.0954 18.076C49.3674 18.356 49.7434 18.496 50.2234 18.496C50.6154 18.496 50.9794 18.42 51.3154 18.268C51.6594 18.116 51.9234 17.92 52.1074 17.68ZM64.2625 19H63.4465V15.508C63.4465 14.788 63.3305 14.256 63.0985 13.912C62.8665 13.56 62.5225 13.384 62.0665 13.384C61.5865 13.384 61.1625 13.552 60.7945 13.888C60.4265 14.224 60.1665 14.656 60.0145 15.184V19H59.1985V15.508C59.1985 14.772 59.0825 14.236 58.8505 13.9C58.6265 13.556 58.2865 13.384 57.8305 13.384C57.3585 13.384 56.9345 13.548 56.5585 13.876C56.1905 14.204 55.9305 14.636 55.7785 15.172V19H54.9625V12.748H55.7065V14.164C55.9625 13.684 56.2985 13.312 56.7145 13.048C57.1305 12.776 57.5905 12.64 58.0945 12.64C58.6145 12.64 59.0345 12.792 59.3545 13.096C59.6745 13.392 59.8705 13.776 59.9425 14.248C60.5185 13.176 61.3225 12.64 62.3545 12.64C63.0585 12.64 63.5505 12.888 63.8305 13.384C64.1185 13.872 64.2625 14.524 64.2625 15.34V19ZM65.4858 17.2C65.4858 16.816 65.5978 16.484 65.8218 16.204C66.0458 15.916 66.3538 15.692 66.7458 15.532C67.1458 15.372 67.6058 15.292 68.1258 15.292C68.4298 15.292 68.7458 15.32 69.0738 15.376C69.4018 15.424 69.6938 15.492 69.9498 15.58V15.052C69.9498 14.524 69.7938 14.104 69.4818 13.792C69.1698 13.48 68.7378 13.324 68.1858 13.324C67.8578 13.324 67.5298 13.388 67.2018 13.516C66.8738 13.636 66.5338 13.816 66.1818 14.056L65.8698 13.48C66.2778 13.2 66.6778 12.992 67.0698 12.856C67.4618 12.712 67.8618 12.64 68.2698 12.64C69.0378 12.64 69.6458 12.86 70.0938 13.3C70.5418 13.74 70.7658 14.348 70.7658 15.124V18.016C70.7658 18.232 70.8658 18.344 71.0658 18.352V19C70.8898 19.024 70.7658 19.032 70.6938 19.024C70.4938 19.016 70.3418 18.952 70.2378 18.832C70.1338 18.712 70.0778 18.584 70.0698 18.448L70.0578 17.992C69.7778 18.352 69.4138 18.632 68.9658 18.832C68.5178 19.024 68.0618 19.12 67.5978 19.12C67.1898 19.12 66.8258 19.036 66.5058 18.868C66.1858 18.692 65.9338 18.46 65.7498 18.172C65.5738 17.876 65.4858 17.552 65.4858 17.2ZM69.6738 17.68C69.8578 17.464 69.9498 17.264 69.9498 17.08V16.168C69.3978 15.952 68.8218 15.844 68.2218 15.844C67.6378 15.844 67.1658 15.96 66.8058 16.192C66.4458 16.424 66.2658 16.74 66.2658 17.14C66.2658 17.484 66.3978 17.796 66.6618 18.076C66.9338 18.356 67.3098 18.496 67.7898 18.496C68.1818 18.496 68.5458 18.42 68.8818 18.268C69.2258 18.116 69.4898 17.92 69.6738 17.68ZM72.1089 15.892C72.1089 15.3 72.2289 14.76 72.4689 14.272C72.7169 13.776 73.0569 13.38 73.4889 13.084C73.9209 12.788 74.4129 12.64 74.9649 12.64C75.4849 12.64 75.9489 12.78 76.3569 13.06C76.7729 13.332 77.0969 13.664 77.3289 14.056V10.24H78.1449V18.016C78.1449 18.232 78.2409 18.344 78.4329 18.352V19C78.2729 19.024 78.1489 19.032 78.0609 19.024C77.8849 19.016 77.7329 18.952 77.6049 18.832C77.4849 18.704 77.4249 18.56 77.4249 18.4V17.788C77.1769 18.196 76.8409 18.52 76.4169 18.76C75.9929 19 75.5529 19.12 75.0969 19.12C74.6649 19.12 74.2649 19.032 73.8969 18.856C73.5289 18.68 73.2089 18.44 72.9369 18.136C72.6729 17.832 72.4689 17.488 72.3249 17.104C72.1809 16.712 72.1089 16.308 72.1089 15.892ZM77.3289 16.852V14.92C77.2249 14.632 77.0569 14.372 76.8249 14.14C76.5929 13.9 76.3289 13.712 76.0329 13.576C75.7449 13.432 75.4569 13.36 75.1689 13.36C74.7209 13.36 74.3289 13.484 73.9929 13.732C73.6649 13.972 73.4089 14.288 73.2249 14.68C73.0409 15.064 72.9489 15.468 72.9489 15.892C72.9489 16.34 73.0489 16.756 73.2489 17.14C73.4569 17.524 73.7369 17.832 74.0889 18.064C74.4409 18.288 74.8369 18.4 75.2769 18.4C75.5489 18.4 75.8329 18.332 76.1289 18.196C76.4329 18.052 76.6969 17.864 76.9209 17.632C77.1529 17.4 77.2889 17.14 77.3289 16.852ZM85.2498 19H84.4338V15.508C84.4338 14.092 83.9538 13.384 82.9938 13.384C82.6818 13.384 82.3778 13.464 82.0818 13.624C81.7858 13.776 81.5218 13.988 81.2898 14.26C81.0658 14.524 80.9058 14.828 80.8098 15.172V19H79.9938V10.24H80.8098V14.164C81.0578 13.7 81.4018 13.332 81.8418 13.06C82.2898 12.78 82.7658 12.64 83.2698 12.64C83.7498 12.64 84.1338 12.756 84.4218 12.988C84.7098 13.212 84.9178 13.528 85.0458 13.936C85.1818 14.336 85.2498 14.804 85.2498 15.34V19ZM86.4858 17.2C86.4858 16.816 86.5978 16.484 86.8218 16.204C87.0458 15.916 87.3538 15.692 87.7458 15.532C88.1458 15.372 88.6058 15.292 89.1258 15.292C89.4298 15.292 89.7458 15.32 90.0738 15.376C90.4018 15.424 90.6938 15.492 90.9498 15.58V15.052C90.9498 14.524 90.7938 14.104 90.4818 13.792C90.1698 13.48 89.7378 13.324 89.1858 13.324C88.8578 13.324 88.5298 13.388 88.2018 13.516C87.8738 13.636 87.5338 13.816 87.1818 14.056L86.8698 13.48C87.2778 13.2 87.6778 12.992 88.0698 12.856C88.4618 12.712 88.8618 12.64 89.2698 12.64C90.0378 12.64 90.6458 12.86 91.0938 13.3C91.5418 13.74 91.7658 14.348 91.7658 15.124V18.016C91.7658 18.232 91.8658 18.344 92.0658 18.352V19C91.8898 19.024 91.7658 19.032 91.6938 19.024C91.4938 19.016 91.3418 18.952 91.2378 18.832C91.1338 18.712 91.0778 18.584 91.0698 18.448L91.0578 17.992C90.7778 18.352 90.4138 18.632 89.9658 18.832C89.5178 19.024 89.0618 19.12 88.5978 19.12C88.1898 19.12 87.8258 19.036 87.5058 18.868C87.1858 18.692 86.9338 18.46 86.7498 18.172C86.5738 17.876 86.4858 17.552 86.4858 17.2ZM90.6738 17.68C90.8578 17.464 90.9498 17.264 90.9498 17.08V16.168C90.3978 15.952 89.8218 15.844 89.2218 15.844C88.6378 15.844 88.1658 15.96 87.8058 16.192C87.4458 16.424 87.2658 16.74 87.2658 17.14C87.2658 17.484 87.3978 17.796 87.6618 18.076C87.9338 18.356 88.3098 18.496 88.7898 18.496C89.1818 18.496 89.5458 18.42 89.8818 18.268C90.2258 18.116 90.4898 17.92 90.6738 17.68ZM95.2014 19L92.6694 12.748H93.5214L95.6574 18.184L97.8054 12.748H98.6094L96.0774 19H95.2014ZM99.3678 19C99.3678 18.64 99.4118 18.276 99.4998 17.908C99.5958 17.532 99.7838 17.172 100.064 16.828C100.352 16.476 100.784 16.152 101.36 15.856C101.592 15.736 101.832 15.62 102.08 15.508C102.328 15.388 102.56 15.26 102.776 15.124C102.992 14.98 103.168 14.82 103.304 14.644C103.44 14.46 103.508 14.244 103.508 13.996C103.508 13.796 103.448 13.604 103.328 13.42C103.208 13.228 103.032 13.072 102.8 12.952C102.568 12.824 102.276 12.76 101.924 12.76C101.588 12.76 101.288 12.82 101.024 12.94C100.768 13.06 100.552 13.2 100.376 13.36C100.208 13.512 100.08 13.636 99.9918 13.732L99.4758 13.168C99.5238 13.12 99.6158 13.036 99.7518 12.916C99.8878 12.788 100.064 12.656 100.28 12.52C100.504 12.384 100.764 12.268 101.06 12.172C101.356 12.076 101.688 12.028 102.056 12.028C102.544 12.028 102.96 12.116 103.304 12.292C103.656 12.468 103.924 12.7 104.108 12.988C104.292 13.268 104.384 13.576 104.384 13.912C104.384 14.24 104.312 14.524 104.168 14.764C104.032 14.996 103.852 15.2 103.628 15.376C103.412 15.544 103.184 15.692 102.944 15.82C102.712 15.94 102.5 16.044 102.308 16.132C101.804 16.372 101.408 16.612 101.12 16.852C100.832 17.084 100.62 17.316 100.484 17.548C100.356 17.78 100.268 18.016 100.22 18.256H104.516V19H99.3678ZM111.614 16.636C111.614 17.132 111.474 17.564 111.194 17.932C110.922 18.3 110.558 18.588 110.102 18.796C109.654 18.996 109.162 19.096 108.626 19.096C108.058 19.096 107.554 18.984 107.114 18.76C106.674 18.528 106.326 18.224 106.07 17.848C105.822 17.472 105.698 17.052 105.698 16.588C105.698 16.228 105.782 15.904 105.95 15.616C106.118 15.328 106.334 15.084 106.598 14.884C106.862 14.684 107.13 14.536 107.402 14.44C107.026 14.288 106.698 14.06 106.418 13.756C106.138 13.444 105.998 13.076 105.998 12.652C105.998 12.3 106.074 11.992 106.226 11.728C106.386 11.456 106.594 11.228 106.85 11.044C107.114 10.86 107.402 10.72 107.714 10.624C108.026 10.528 108.342 10.48 108.662 10.48C109.086 10.48 109.502 10.564 109.91 10.732C110.318 10.892 110.654 11.136 110.918 11.464C111.19 11.784 111.326 12.176 111.326 12.64C111.326 13.064 111.182 13.432 110.894 13.744C110.614 14.056 110.282 14.288 109.898 14.44C110.362 14.6 110.762 14.872 111.098 15.256C111.442 15.64 111.614 16.1 111.614 16.636ZM106.814 12.688C106.814 13 106.91 13.264 107.102 13.48C107.294 13.696 107.53 13.86 107.81 13.972C108.09 14.084 108.37 14.14 108.65 14.14C108.938 14.14 109.222 14.084 109.502 13.972C109.782 13.852 110.018 13.684 110.21 13.468C110.402 13.244 110.498 12.976 110.498 12.664C110.498 12.36 110.41 12.1 110.234 11.884C110.058 11.668 109.826 11.504 109.538 11.392C109.258 11.28 108.958 11.224 108.638 11.224C108.326 11.224 108.03 11.284 107.75 11.404C107.478 11.516 107.254 11.684 107.078 11.908C106.902 12.124 106.814 12.384 106.814 12.688ZM110.786 16.576C110.786 16.2 110.678 15.88 110.462 15.616C110.246 15.344 109.97 15.14 109.634 15.004C109.306 14.86 108.974 14.788 108.638 14.788C108.294 14.788 107.958 14.864 107.63 15.016C107.31 15.16 107.046 15.368 106.838 15.64C106.638 15.912 106.538 16.228 106.538 16.588C106.538 16.956 106.646 17.276 106.862 17.548C107.078 17.812 107.35 18.016 107.678 18.16C108.006 18.296 108.338 18.364 108.674 18.364C109.018 18.364 109.35 18.292 109.67 18.148C109.998 17.996 110.266 17.788 110.474 17.524C110.682 17.252 110.786 16.936 110.786 16.576Z" fill="white"/>
<g clip-path="url(#clip0)">
<path d="M168.995 9.73135C168.494 10.4767 167.879 11.112 167.151 11.6374C167.158 11.7783 167.162 11.9375 167.162 12.1151C167.162 13.1019 167.018 14.09 166.73 15.0792C166.443 16.0684 166.003 17.0153 165.412 17.9198C164.82 18.8243 164.116 19.6256 163.298 20.3237C162.481 21.0218 161.498 21.5784 160.351 21.9936C159.203 22.4088 157.973 22.6163 156.66 22.6163C154.612 22.6163 152.726 22.0634 151.002 20.9575C151.308 20.9915 151.601 21.0086 151.882 21.0086C153.593 21.0086 155.122 20.4815 156.467 19.4274C155.669 19.4128 154.955 19.1672 154.324 18.6906C153.693 18.2141 153.258 17.6051 153.021 16.8638C153.255 16.9085 153.487 16.9309 153.716 16.9309C154.045 16.9309 154.369 16.8879 154.688 16.8021C153.836 16.6315 153.13 16.2075 152.569 15.5298C152.007 14.8522 151.727 14.0702 151.727 13.1836V13.1379C152.249 13.4273 152.807 13.5812 153.399 13.5997C152.895 13.2634 152.495 12.8249 152.199 12.2842C151.904 11.7435 151.756 11.1583 151.756 10.5288C151.756 9.86476 151.923 9.24645 152.255 8.67383C153.181 9.81007 154.303 10.7182 155.621 11.3982C156.939 12.0782 158.353 12.4559 159.863 12.5312C159.799 12.2628 159.766 11.9827 159.766 11.6909C159.766 10.6722 160.127 9.80239 160.848 9.08143C161.569 8.36048 162.439 8 163.457 8C164.524 8 165.422 8.38836 166.153 9.16508C166.987 8.99983 167.768 8.70093 168.496 8.26838C168.216 9.15111 167.675 9.83208 166.875 10.3113C167.61 10.2239 168.317 10.0305 168.995 9.73135H168.995Z" fill="white"/>
</g>
<defs>
<clipPath id="clip0">
<rect width="18" height="14.6163" fill="white" transform="translate(151 8)"/>
</clipPath>
</defs>
</svg>
