<svg width="188" height="38" viewBox="0 0 188 38" fill="none" xmlns="http://www.w3.org/2000/svg">
<g filter="url(#filter0_d)">
<rect x="4" width="180" height="30" fill="#555555"/>
<rect x="144" width="40" height="30" fill="#44CC11"/>
<g clip-path="url(#clip0)">
<path d="M164 5C158.477 5 154 9.47715 154 15C154 20.5229 158.477 25 164 25C169.523 25 174 20.5229 174 15C174 9.47715 169.523 5 164 5ZM158.686 10.0272H169.313V19.9728H158.686V10.0272ZM159.996 11.3266V18.674H168.004V11.3266H159.996ZM160.869 12.2638H167.109V15.5218H160.869V12.2638ZM160.869 16.0866H162.637V17.854H160.869V16.0866ZM163.105 16.0866H164.873V17.854H163.105V16.0866V16.0866ZM165.341 16.0866H167.109V17.854H165.341V16.0866V16.0866Z" fill="white"/>
</g>
<path d="M31.5367 11.44V10.24H32.3527V11.44H31.5367ZM30.5167 21.172C30.2527 21.172 30.0047 21.136 29.7727 21.064C29.5327 20.992 29.3247 20.872 29.1487 20.704L29.5447 20.152C29.6727 20.264 29.8127 20.34 29.9647 20.38C30.1167 20.42 30.2687 20.44 30.4207 20.44C30.7007 20.44 30.9567 20.332 31.1887 20.116C31.4207 19.908 31.5367 19.644 31.5367 19.324V12.748H32.3527V19.276C32.3527 19.644 32.2647 19.972 32.0887 20.26C31.9127 20.548 31.6847 20.772 31.4047 20.932C31.1247 21.092 30.8287 21.172 30.5167 21.172ZM39.404 19H38.588V15.508C38.588 14.092 38.108 13.384 37.148 13.384C36.836 13.384 36.532 13.464 36.236 13.624C35.94 13.776 35.676 13.988 35.444 14.26C35.22 14.524 35.06 14.828 34.964 15.172V19H34.148V10.24H34.964V14.164C35.212 13.7 35.556 13.332 35.996 13.06C36.444 12.78 36.92 12.64 37.424 12.64C37.904 12.64 38.288 12.756 38.576 12.988C38.864 13.212 39.072 13.528 39.2 13.936C39.336 14.336 39.404 14.804 39.404 15.34V19ZM40.6401 17.2C40.6401 16.816 40.7521 16.484 40.9761 16.204C41.2001 15.916 41.5081 15.692 41.9001 15.532C42.3001 15.372 42.7601 15.292 43.2801 15.292C43.5841 15.292 43.9001 15.32 44.2281 15.376C44.5561 15.424 44.8481 15.492 45.1041 15.58V15.052C45.1041 14.524 44.9481 14.104 44.6361 13.792C44.3241 13.48 43.8921 13.324 43.3401 13.324C43.0121 13.324 42.6841 13.388 42.3561 13.516C42.0281 13.636 41.6881 13.816 41.3361 14.056L41.0241 13.48C41.4321 13.2 41.8321 12.992 42.2241 12.856C42.6161 12.712 43.0161 12.64 43.4241 12.64C44.1921 12.64 44.8001 12.86 45.2481 13.3C45.6961 13.74 45.9201 14.348 45.9201 15.124V18.016C45.9201 18.232 46.0201 18.344 46.2201 18.352V19C46.0441 19.024 45.9201 19.032 45.8481 19.024C45.6481 19.016 45.4961 18.952 45.3921 18.832C45.2881 18.712 45.2321 18.584 45.2241 18.448L45.2121 17.992C44.9321 18.352 44.5681 18.632 44.1201 18.832C43.6721 19.024 43.2161 19.12 42.7521 19.12C42.3441 19.12 41.9801 19.036 41.6601 18.868C41.3401 18.692 41.0881 18.46 40.9041 18.172C40.7281 17.876 40.6401 17.552 40.6401 17.2ZM44.8281 17.68C45.0121 17.464 45.1041 17.264 45.1041 17.08V16.168C44.5521 15.952 43.9761 15.844 43.3761 15.844C42.7921 15.844 42.3201 15.96 41.9601 16.192C41.6001 16.424 41.4201 16.74 41.4201 17.14C41.4201 17.484 41.5521 17.796 41.8161 18.076C42.0881 18.356 42.4641 18.496 42.9441 18.496C43.3361 18.496 43.7001 18.42 44.0361 18.268C44.3801 18.116 44.6441 17.92 44.8281 17.68ZM56.9832 19H56.1672V15.508C56.1672 14.788 56.0512 14.256 55.8192 13.912C55.5872 13.56 55.2432 13.384 54.7872 13.384C54.3072 13.384 53.8832 13.552 53.5152 13.888C53.1472 14.224 52.8872 14.656 52.7352 15.184V19H51.9192V15.508C51.9192 14.772 51.8032 14.236 51.5712 13.9C51.3472 13.556 51.0072 13.384 50.5512 13.384C50.0792 13.384 49.6552 13.548 49.2792 13.876C48.9112 14.204 48.6512 14.636 48.4992 15.172V19H47.6832V12.748H48.4272V14.164C48.6832 13.684 49.0192 13.312 49.4352 13.048C49.8512 12.776 50.3112 12.64 50.8152 12.64C51.3352 12.64 51.7552 12.792 52.0752 13.096C52.3952 13.392 52.5912 13.776 52.6632 14.248C53.2392 13.176 54.0432 12.64 55.0752 12.64C55.7792 12.64 56.2712 12.888 56.5512 13.384C56.8392 13.872 56.9832 14.524 56.9832 15.34V19ZM58.2065 17.2C58.2065 16.816 58.3185 16.484 58.5425 16.204C58.7665 15.916 59.0745 15.692 59.4665 15.532C59.8665 15.372 60.3265 15.292 60.8465 15.292C61.1505 15.292 61.4665 15.32 61.7945 15.376C62.1225 15.424 62.4145 15.492 62.6705 15.58V15.052C62.6705 14.524 62.5145 14.104 62.2025 13.792C61.8905 13.48 61.4585 13.324 60.9065 13.324C60.5785 13.324 60.2505 13.388 59.9225 13.516C59.5945 13.636 59.2545 13.816 58.9025 14.056L58.5905 13.48C58.9985 13.2 59.3985 12.992 59.7905 12.856C60.1825 12.712 60.5825 12.64 60.9905 12.64C61.7585 12.64 62.3665 12.86 62.8145 13.3C63.2625 13.74 63.4865 14.348 63.4865 15.124V18.016C63.4865 18.232 63.5865 18.344 63.7865 18.352V19C63.6105 19.024 63.4865 19.032 63.4145 19.024C63.2145 19.016 63.0625 18.952 62.9585 18.832C62.8545 18.712 62.7985 18.584 62.7905 18.448L62.7785 17.992C62.4985 18.352 62.1345 18.632 61.6865 18.832C61.2385 19.024 60.7825 19.12 60.3185 19.12C59.9105 19.12 59.5465 19.036 59.2265 18.868C58.9065 18.692 58.6545 18.46 58.4705 18.172C58.2945 17.876 58.2065 17.552 58.2065 17.2ZM62.3945 17.68C62.5785 17.464 62.6705 17.264 62.6705 17.08V16.168C62.1185 15.952 61.5425 15.844 60.9425 15.844C60.3585 15.844 59.8865 15.96 59.5265 16.192C59.1665 16.424 58.9865 16.74 58.9865 17.14C58.9865 17.484 59.1185 17.796 59.3825 18.076C59.6545 18.356 60.0305 18.496 60.5105 18.496C60.9025 18.496 61.2665 18.42 61.6025 18.268C61.9465 18.116 62.2105 17.92 62.3945 17.68ZM64.8296 15.892C64.8296 15.3 64.9496 14.76 65.1896 14.272C65.4376 13.776 65.7776 13.38 66.2096 13.084C66.6416 12.788 67.1336 12.64 67.6856 12.64C68.2056 12.64 68.6696 12.78 69.0776 13.06C69.4936 13.332 69.8176 13.664 70.0496 14.056V10.24H70.8656V18.016C70.8656 18.232 70.9616 18.344 71.1536 18.352V19C70.9936 19.024 70.8696 19.032 70.7816 19.024C70.6056 19.016 70.4536 18.952 70.3256 18.832C70.2056 18.704 70.1456 18.56 70.1456 18.4V17.788C69.8976 18.196 69.5616 18.52 69.1376 18.76C68.7136 19 68.2736 19.12 67.8176 19.12C67.3856 19.12 66.9856 19.032 66.6176 18.856C66.2496 18.68 65.9296 18.44 65.6576 18.136C65.3936 17.832 65.1896 17.488 65.0456 17.104C64.9016 16.712 64.8296 16.308 64.8296 15.892ZM70.0496 16.852V14.92C69.9456 14.632 69.7776 14.372 69.5456 14.14C69.3136 13.9 69.0496 13.712 68.7536 13.576C68.4656 13.432 68.1776 13.36 67.8896 13.36C67.4416 13.36 67.0496 13.484 66.7136 13.732C66.3856 13.972 66.1296 14.288 65.9456 14.68C65.7616 15.064 65.6696 15.468 65.6696 15.892C65.6696 16.34 65.7696 16.756 65.9696 17.14C66.1776 17.524 66.4576 17.832 66.8096 18.064C67.1616 18.288 67.5576 18.4 67.9976 18.4C68.2696 18.4 68.5536 18.332 68.8496 18.196C69.1536 18.052 69.4176 17.864 69.6416 17.632C69.8736 17.4 70.0096 17.14 70.0496 16.852ZM77.9705 19H77.1545V15.508C77.1545 14.092 76.6745 13.384 75.7145 13.384C75.4025 13.384 75.0985 13.464 74.8025 13.624C74.5065 13.776 74.2425 13.988 74.0105 14.26C73.7865 14.524 73.6265 14.828 73.5305 15.172V19H72.7145V10.24H73.5305V14.164C73.7785 13.7 74.1225 13.332 74.5625 13.06C75.0105 12.78 75.4865 12.64 75.9905 12.64C76.4705 12.64 76.8545 12.756 77.1425 12.988C77.4305 13.212 77.6385 13.528 77.7665 13.936C77.9025 14.336 77.9705 14.804 77.9705 15.34V19ZM79.2065 17.2C79.2065 16.816 79.3185 16.484 79.5425 16.204C79.7665 15.916 80.0745 15.692 80.4665 15.532C80.8665 15.372 81.3265 15.292 81.8465 15.292C82.1505 15.292 82.4665 15.32 82.7945 15.376C83.1225 15.424 83.4145 15.492 83.6705 15.58V15.052C83.6705 14.524 83.5145 14.104 83.2025 13.792C82.8905 13.48 82.4585 13.324 81.9065 13.324C81.5785 13.324 81.2505 13.388 80.9225 13.516C80.5945 13.636 80.2545 13.816 79.9025 14.056L79.5905 13.48C79.9985 13.2 80.3985 12.992 80.7905 12.856C81.1825 12.712 81.5825 12.64 81.9905 12.64C82.7585 12.64 83.3665 12.86 83.8145 13.3C84.2625 13.74 84.4865 14.348 84.4865 15.124V18.016C84.4865 18.232 84.5865 18.344 84.7865 18.352V19C84.6105 19.024 84.4865 19.032 84.4145 19.024C84.2145 19.016 84.0625 18.952 83.9585 18.832C83.8545 18.712 83.7985 18.584 83.7905 18.448L83.7785 17.992C83.4985 18.352 83.1345 18.632 82.6865 18.832C82.2385 19.024 81.7825 19.12 81.3185 19.12C80.9105 19.12 80.5465 19.036 80.2265 18.868C79.9065 18.692 79.6545 18.46 79.4705 18.172C79.2945 17.876 79.2065 17.552 79.2065 17.2ZM83.3945 17.68C83.5785 17.464 83.6705 17.264 83.6705 17.08V16.168C83.1185 15.952 82.5425 15.844 81.9425 15.844C81.3585 15.844 80.8865 15.96 80.5265 16.192C80.1665 16.424 79.9865 16.74 79.9865 17.14C79.9865 17.484 80.1185 17.796 80.3825 18.076C80.6545 18.356 81.0305 18.496 81.5105 18.496C81.9025 18.496 82.2665 18.42 82.6025 18.268C82.9465 18.116 83.2105 17.92 83.3945 17.68ZM87.9221 19L85.3901 12.748H86.2421L88.3781 18.184L90.5261 12.748H91.3301L88.7981 19H87.9221ZM91.4968 19V17.824H92.2048V19H91.4968ZM96.3679 19.12C95.7599 19.12 95.2199 18.972 94.7479 18.676C94.2759 18.372 93.9039 17.976 93.6319 17.488C93.3599 16.992 93.2239 16.448 93.2239 15.856C93.2239 15.264 93.3559 14.728 93.6199 14.248C93.8839 13.76 94.2519 13.372 94.7239 13.084C95.1959 12.788 95.7399 12.64 96.3559 12.64C96.9399 12.64 97.4519 12.776 97.8919 13.048C98.3399 13.312 98.6759 13.672 98.8999 14.128L98.1079 14.38C97.9319 14.06 97.6839 13.812 97.3639 13.636C97.0519 13.452 96.7039 13.36 96.3199 13.36C95.8959 13.36 95.5119 13.468 95.1679 13.684C94.8319 13.9 94.5599 14.2 94.3519 14.584C94.1519 14.96 94.0519 15.384 94.0519 15.856C94.0519 16.328 94.1559 16.756 94.3639 17.14C94.5719 17.524 94.8479 17.832 95.1919 18.064C95.5359 18.288 95.9159 18.4 96.3319 18.4C96.6039 18.4 96.8679 18.352 97.1239 18.256C97.3799 18.16 97.5999 18.032 97.7839 17.872C97.9679 17.704 98.0919 17.524 98.1559 17.332L98.9599 17.572C98.8479 17.868 98.6639 18.136 98.4079 18.376C98.1519 18.608 97.8479 18.792 97.4959 18.928C97.1439 19.056 96.7679 19.12 96.3679 19.12ZM102.847 19.12C102.247 19.12 101.711 18.972 101.239 18.676C100.775 18.38 100.411 17.988 100.147 17.5C99.8832 17.004 99.7512 16.468 99.7512 15.892C99.7512 15.308 99.8832 14.772 100.147 14.284C100.419 13.788 100.787 13.392 101.251 13.096C101.723 12.792 102.255 12.64 102.847 12.64C103.447 12.64 103.979 12.792 104.443 13.096C104.915 13.392 105.283 13.788 105.547 14.284C105.819 14.772 105.955 15.308 105.955 15.892C105.955 16.468 105.823 17.004 105.559 17.5C105.295 17.988 104.927 18.38 104.455 18.676C103.991 18.972 103.455 19.12 102.847 19.12ZM100.579 15.904C100.579 16.368 100.679 16.792 100.879 17.176C101.087 17.552 101.363 17.852 101.707 18.076C102.051 18.292 102.431 18.4 102.847 18.4C103.263 18.4 103.643 18.288 103.987 18.064C104.331 17.84 104.607 17.536 104.815 17.152C105.023 16.768 105.127 16.344 105.127 15.88C105.127 15.416 105.023 14.992 104.815 14.608C104.607 14.224 104.331 13.92 103.987 13.696C103.643 13.472 103.263 13.36 102.847 13.36C102.439 13.36 102.063 13.476 101.719 13.708C101.375 13.932 101.099 14.236 100.891 14.62C100.683 15.004 100.579 15.432 100.579 15.904ZM116.62 19H115.804V15.508C115.804 14.788 115.688 14.256 115.456 13.912C115.224 13.56 114.88 13.384 114.424 13.384C113.944 13.384 113.52 13.552 113.152 13.888C112.784 14.224 112.524 14.656 112.372 15.184V19H111.556V15.508C111.556 14.772 111.44 14.236 111.208 13.9C110.984 13.556 110.644 13.384 110.188 13.384C109.716 13.384 109.292 13.548 108.916 13.876C108.548 14.204 108.288 14.636 108.136 15.172V19H107.32V12.748H108.064V14.164C108.32 13.684 108.656 13.312 109.072 13.048C109.488 12.776 109.948 12.64 110.452 12.64C110.972 12.64 111.392 12.792 111.712 13.096C112.032 13.392 112.228 13.776 112.3 14.248C112.876 13.176 113.68 12.64 114.712 12.64C115.416 12.64 115.908 12.888 116.188 13.384C116.476 13.872 116.62 14.524 116.62 15.34V19Z" fill="white"/>
</g>
<defs>
<filter id="filter0_d" x="0" y="0" width="188" height="38" filterUnits="userSpaceOnUse" color-interpolation-filters="sRGB">
<feFlood flood-opacity="0" result="BackgroundImageFix"/>
<feColorMatrix in="SourceAlpha" type="matrix" values="0 0 0 0 0 0 0 0 0 0 0 0 0 0 0 0 0 0 127 0"/>
<feOffset dy="4"/>
<feGaussianBlur stdDeviation="2"/>
<feColorMatrix type="matrix" values="0 0 0 0 0 0 0 0 0 0 0 0 0 0 0 0 0 0 0.25 0"/>
<feBlend mode="normal" in2="BackgroundImageFix" result="effect1_dropShadow"/>
<feBlend mode="normal" in="SourceGraphic" in2="effect1_dropShadow" result="shape"/>
</filter>
<clipPath id="clip0">
<rect width="20" height="20" fill="white" transform="translate(154 5)"/>
</clipPath>
</defs>
</svg>
